<svg xmlns="http://www.w3.org/2000/svg" viewBox="0 0 64 64">
  <!-- Background circle with neobrutalist shadow -->
  <circle cx="34" cy="34" r="28" fill="#000"/>
  <circle cx="32" cy="32" r="28" fill="#FEF3C7"/>
  <circle cx="32" cy="32" r="28" fill="none" stroke="#000" stroke-width="3"/>
  
  <!-- P1 Character (Blue bubble) - Left -->
  <g transform="translate(14, 20)">
    <!-- Shadow -->
    <ellipse cx="12" cy="26" rx="9" ry="3" fill="rgba(0,0,0,0.15)"/>
    <!-- Body bubble -->
    <circle cx="12" cy="16" r="11" fill="#4ECDC4"/>
    <circle cx="12" cy="16" r="11" fill="none" stroke="#000" stroke-width="2.5"/>
    <!-- Highlight -->
    <ellipse cx="8" cy="12" rx="4" ry="3" fill="rgba(255,255,255,0.4)"/>
    <!-- Eyes -->
    <circle cx="8" cy="15" r="2" fill="#000"/>
    <circle cx="15" cy="15" r="2" fill="#000"/>
    <!-- Eye sparkle -->
    <circle cx="7" cy="14" r="0.8" fill="#fff"/>
    <circle cx="14" cy="14" r="0.8" fill="#fff"/>
    <!-- Happy mouth -->
    <path d="M8 19 Q12 22 15 19" fill="none" stroke="#000" stroke-width="1.5" stroke-linecap="round"/>
  </g>
  
  <!-- P2 Character (Red/Pink bubble) - Right -->
  <g transform="translate(26, 18)">
    <!-- Shadow -->
    <ellipse cx="12" cy="28" rx="9" ry="3" fill="rgba(0,0,0,0.15)"/>
    <!-- Body bubble -->
    <circle cx="12" cy="18" r="11" fill="#FF6B6B"/>
    <circle cx="12" cy="18" r="11" fill="none" stroke="#000" stroke-width="2.5"/>
    <!-- Highlight -->
    <ellipse cx="8" cy="14" rx="4" ry="3" fill="rgba(255,255,255,0.4)"/>
    <!-- Eyes -->
    <circle cx="8" cy="17" r="2" fill="#000"/>
    <circle cx="15" cy="17" r="2" fill="#000"/>
    <!-- Eye sparkle -->
    <circle cx="7" cy="16" r="0.8" fill="#fff"/>
    <circle cx="14" cy="16" r="0.8" fill="#fff"/>
    <!-- Wink mouth -->
    <path d="M8 21 Q12 24 15 21" fill="none" stroke="#000" stroke-width="1.5" stroke-linecap="round"/>
    <!-- Blush -->
    <ellipse cx="5" cy="19" rx="2" ry="1.2" fill="rgba(255,150,150,0.5)"/>
    <ellipse cx="18" cy="19" rx="2" ry="1.2" fill="rgba(255,150,150,0.5)"/>
  </g>
  
  <!-- Small heart between them -->
  <path d="M32 26 
           C32 24, 29 22, 29 24.5 
           C29 26, 32 29, 32 29 
           C32 29, 35 26, 35 24.5 
           C35 22, 32 24, 32 26Z" 
        fill="#FFD93D" stroke="#000" stroke-width="1.5"/>
  
  <!-- Tiny bomb/bubble decorations -->
  <circle cx="50" cy="14" r="4" fill="#F59E0B" stroke="#000" stroke-width="1.5"/>
  <rect x="49" y="8" width="2" height="3" fill="#000"/>
  <circle cx="50" cy="7" r="1.5" fill="#FF6B6B"/>
  
  <circle cx="12" cy="50" r="3" fill="#B5FFFC" stroke="#000" stroke-width="1"/>
  <circle cx="52" cy="52" r="2.5" fill="#FFDEE9" stroke="#000" stroke-width="1"/>
</svg>

