<svg xmlns="http://www.w3.org/2000/svg" viewBox="0 0 32 32">
  <!-- Background -->
  <rect x="1" y="1" width="30" height="30" rx="6" fill="#FEF3C7" stroke="#000" stroke-width="2"/>
  
  <!-- P1 (Cyan bubble) -->
  <circle cx="11" cy="16" r="7" fill="#4ECDC4" stroke="#000" stroke-width="1.5"/>
  <circle cx="9" cy="14" r="1.5" fill="#000"/>
  <circle cx="13" cy="14" r="1.5" fill="#000"/>
  <circle cx="8.5" cy="13.5" r="0.5" fill="#fff"/>
  <circle cx="12.5" cy="13.5" r="0.5" fill="#fff"/>
  <ellipse cx="8" cy="12" rx="2.5" ry="1.5" fill="rgba(255,255,255,0.4)"/>
  <path d="M8 18 Q11 20 13 18" fill="none" stroke="#000" stroke-width="1" stroke-linecap="round"/>
  
  <!-- P2 (Red bubble) -->
  <circle cx="21" cy="16" r="7" fill="#FF6B6B" stroke="#000" stroke-width="1.5"/>
  <circle cx="19" cy="14" r="1.5" fill="#000"/>
  <circle cx="23" cy="14" r="1.5" fill="#000"/>
  <circle cx="18.5" cy="13.5" r="0.5" fill="#fff"/>
  <circle cx="22.5" cy="13.5" r="0.5" fill="#fff"/>
  <ellipse cx="18" cy="12" rx="2.5" ry="1.5" fill="rgba(255,255,255,0.4)"/>
  <path d="M18 18 Q21 20 23 18" fill="none" stroke="#000" stroke-width="1" stroke-linecap="round"/>
  
  <!-- Heart -->
  <path d="M16 12 C16 11, 14.5 10, 14.5 11 C14.5 11.5, 16 13, 16 13 C16 13, 17.5 11.5, 17.5 11 C17.5 10, 16 11, 16 12Z" 
        fill="#FFD93D" stroke="#000" stroke-width="0.8"/>
</svg>

